<?xml version="1.0" encoding="UTF-8"?>
<!DOCTYPE svg PUBLIC "-//W3C//DTD SVG 1.1//EN" "http://www.w3.org/Graphics/SVG/1.1/DTD/svg11.dtd">
<!-- Creator: CorelDRAW 2020 (64-Bit) -->
<svg xmlns="http://www.w3.org/2000/svg" xml:space="preserve" width="202px" height="62px" version="1.1" style="shape-rendering:geometricPrecision; text-rendering:geometricPrecision; image-rendering:optimizeQuality; fill-rule:evenodd; clip-rule:evenodd"
viewBox="0 0 16.49 5.07"
 xmlns:xlink="http://www.w3.org/1999/xlink"
 xmlns:xodm="http://www.corel.com/coreldraw/odm/2003">
 <defs>
  <style type="text/css">
   <![CDATA[
    .fil3 {fill:#942420}
    .fil0 {fill:#FFD70C;fill-rule:nonzero}
    .fil2 {fill:#DB1F33;fill-rule:nonzero}
    .fil1 {fill:#4B7A1C;fill-rule:nonzero}
   ]]>
  </style>
 </defs>
 <g id="Слой_x0020_1">
  <metadata id="CorelCorpID_0Corel-Layer"/>
  <g id="_2390221656112">
   <g>
    <path class="fil0" d="M5.81 3.34c0.07,0 0.13,0.01 0.18,0.03 0.05,0.02 0.09,0.04 0.12,0.08 0.03,0.03 0.05,0.08 0.06,0.12 0.02,0.05 0.03,0.1 0.03,0.15l0 0.94c0,0.07 -0.01,0.13 -0.03,0.18 -0.02,0.05 -0.05,0.09 -0.09,0.12 -0.03,0.03 -0.07,0.05 -0.12,0.06 -0.05,0.02 -0.1,0.03 -0.15,0.03l-0.54 0 0 -2.51 0.85 0 0 0.28 -0.58 0 0 0.52 0.27 0zm0.11 0.38c0,-0.03 -0.01,-0.05 -0.02,-0.07 -0.02,-0.03 -0.05,-0.04 -0.09,-0.04l-0.27 0 0 1.16 0.27 0c0.03,0 0.06,-0.01 0.08,-0.03 0.02,-0.01 0.03,-0.04 0.03,-0.08l0 -0.94zm1.65 0.15c0,0.07 -0.01,0.13 -0.03,0.17 -0.02,0.05 -0.05,0.09 -0.08,0.12 -0.04,0.03 -0.08,0.06 -0.13,0.07 -0.04,0.02 -0.09,0.02 -0.15,0.02l-0.25 0 0 0.8 -0.28 0 0 -2.51 0.53 0c0.07,0 0.13,0.01 0.18,0.03 0.05,0.02 0.09,0.05 0.12,0.09 0.04,0.03 0.06,0.07 0.07,0.12 0.02,0.05 0.02,0.1 0.02,0.15l0 0.94zm-0.28 -0.94c0,-0.03 0,-0.06 -0.02,-0.08 -0.02,-0.02 -0.04,-0.03 -0.09,-0.03l-0.25 0 0 1.15 0.25 0c0.04,0 0.06,0 0.08,-0.02 0.02,-0.01 0.03,-0.04 0.03,-0.08l0 -0.94zm1.45 1.8c-0.02,0.09 -0.06,0.16 -0.12,0.22 -0.06,0.07 -0.15,0.1 -0.27,0.1l-0.19 0 0 -0.28 0.19 0c0.03,0 0.06,-0.01 0.08,-0.02 0.01,-0.02 0.02,-0.03 0.03,-0.05l0.08 -0.45 -0.25 0 -0.39 -1.71 0.29 0 0.3 1.43 0.1 0 0.26 -1.43 0.28 0 -0.39 2.19zm1.46 -0.76l0.27 0 0 0.71c0,0.05 0,0.1 -0.02,0.15 -0.01,0.05 -0.03,0.09 -0.06,0.12 -0.03,0.04 -0.07,0.07 -0.12,0.09 -0.05,0.02 -0.11,0.03 -0.18,0.03l-0.21 0c-0.07,0 -0.13,-0.01 -0.18,-0.03 -0.05,-0.02 -0.09,-0.05 -0.12,-0.09 -0.03,-0.03 -0.05,-0.07 -0.06,-0.12 -0.02,-0.05 -0.03,-0.1 -0.03,-0.15l0 -1.77c0,-0.06 0.01,-0.11 0.03,-0.15 0.01,-0.05 0.03,-0.09 0.06,-0.13 0.03,-0.03 0.07,-0.06 0.12,-0.08 0.05,-0.02 0.11,-0.03 0.18,-0.03l0.21 0c0.07,0 0.13,0.01 0.18,0.03 0.05,0.02 0.09,0.05 0.12,0.08 0.03,0.04 0.05,0.08 0.06,0.13 0.02,0.04 0.02,0.09 0.02,0.15l0 0.48 -0.27 0 0 -0.48c0,-0.03 -0.01,-0.06 -0.03,-0.08 -0.01,-0.02 -0.04,-0.03 -0.08,-0.03l-0.21 0c-0.04,0 -0.07,0.01 -0.08,0.03 -0.02,0.02 -0.03,0.05 -0.03,0.08l0 1.77c0,0.03 0.01,0.06 0.03,0.08 0.01,0.02 0.04,0.03 0.08,0.03l0.21 0c0.04,0 0.07,-0.01 0.08,-0.03 0.02,-0.02 0.03,-0.05 0.03,-0.08l0 -0.71z"/>
    <path class="fil1" d="M11.66 2.54l0.28 0 0 2.51 -0.28 0 0 -1.43 -0.43 0 0 1.43 -0.28 0 0 -2.51 0.28 0 0 0.8 0.43 0 0 -0.8zm1.47 2.51l0 -1.59 -0.41 0.41 0 1.18 -0.28 0 0 -2.51 0.28 0 0 0.99 0.41 -0.42 0 -0.57 0.28 0 0 2.51 -0.28 0zm0.78 -2.51l0.28 0 0 0.82 0.24 0 0.27 -0.82 0.3 0 -0.31 0.94 0.33 1.57 -0.28 0 -0.31 -1.45 -0.24 0 0 1.45 -0.28 0 0 -2.51zm2.25 2.03l-0.5 0 -0.05 0.48 -0.28 0 0.28 -2.51 0.59 0 0.29 2.51 -0.28 0 -0.05 -0.48zm-0.03 -0.26l-0.18 -1.49 -0.09 0 -0.17 1.49 0.44 0z"/>
   </g>
   <path class="fil2" d="M3.08 2.48l0.8 0.41 0 1.62 -0.25 0 0 -1.47 -0.8 -0.41 0.25 -0.15zm-0.6 0.36l0.87 0.46 0 1.21 -0.24 0 0 -1.07 -0.88 -0.46 0.25 -0.14z"/>
   <path class="fil1" d="M4.75 0.04c1.48,-0.24 1.55,0.76 -0.8,1.26 3.61,-1.19 0.36,-1.95 -0.46,-0.12 0.46,-0.45 1.11,-0.86 1.82,-0.84 -0.98,0.21 -1.45,0.65 -2.02,1.24 -0.1,-0.79 0.75,-1.43 1.46,-1.54z"/>
   <path class="fil3" d="M0 5.03l0 -2.55c0.64,-0.37 1.28,-0.74 1.92,-1.1l0 -0.59 0.24 0 0.23 0.29 0.22 -0.29 0.24 0 0 0.91 -2.09 1.21 0 1.6 -0.25 0 0 -1.74 2.1 -1.21 0 -0.38 -0.22 0.3 -0.23 -0.3 0 0.33 -1.92 1.11 0 2.17 3.92 0 0 -2.18 -0.96 -0.55 -1.92 1.15 0 1.3 -0.24 0 0 -1.44 2.16 -1.28 1.2 0.68 0 2.56 -4.4 0z"/>
  </g>
 </g>
</svg>
