<?xml version="1.0" encoding="UTF-8"?>
<!DOCTYPE svg PUBLIC "-//W3C//DTD SVG 1.1//EN" "http://www.w3.org/Graphics/SVG/1.1/DTD/svg11.dtd">
<!-- Creator: CorelDRAW 2020 (64-Bit) -->
<svg xmlns="http://www.w3.org/2000/svg" xml:space="preserve" width="197px" height="197px" version="1.1" style="shape-rendering:geometricPrecision; text-rendering:geometricPrecision; image-rendering:optimizeQuality; fill-rule:evenodd; clip-rule:evenodd"
viewBox="0 0 15.68 15.68"
 xmlns:xlink="http://www.w3.org/1999/xlink"
 xmlns:xodm="http://www.corel.com/coreldraw/odm/2003">
 <defs>
  <style type="text/css">
   <![CDATA[
    .fil0 {fill:#4B7A1C}
   ]]>
  </style>
 </defs>
 <g id="Слой_x0020_1">
  <metadata id="CorelCorpID_0Corel-Layer"/>
  <path class="fil0" d="M7.84 0c4.33,0 7.84,3.51 7.84,7.84 0,4.33 -3.51,7.84 -7.84,7.84 -4.33,0 -7.84,-3.51 -7.84,-7.84 0,-4.33 3.51,-7.84 7.84,-7.84zm-0.71 2.33c0.03,-0.03 0.06,-0.06 0.1,-0.09 0.04,-0.03 0.08,-0.05 0.13,-0.08 0.14,-0.08 0.3,-0.12 0.48,-0.12 0.17,0 0.34,0.04 0.48,0.12 0.05,0.03 0.08,0.05 0.13,0.08 0.03,0.03 0.07,0.06 0.1,0.09l3.81 3.82c0.39,0.38 0.39,1.01 0,1.4 -0.39,0.39 -1.02,0.39 -1.41,0l-2.12 -2.12 0 7.22c0,0.55 -0.44,0.99 -0.99,0.99 -0.55,0 -1,-0.44 -1,-0.99l0 -7.22 -2.12 2.12c-0.39,0.39 -1.01,0.39 -1.4,0 -0.39,-0.39 -0.39,-1.02 0,-1.4l3.81 -3.82z"/>
 </g>
</svg>
